<svg xmlns="http://www.w3.org/2000/svg" width="581" height="581" viewBox="0 0 581 581">
  <g fill="none" fill-rule="evenodd">
    <g fill="#FFF" transform="translate(66 189)">
      <path d="M0 316.708556L0 282.205348C9.91070247 284.608568 18.5234457 285.81016 25.838488 285.81016 48.9634604 285.81016 60.5257732 271.619928 60.5257732 243.239037L60.5257732 0 103 0 103 241.865775C103 267.500128 96.7174168 287.097526 84.1520619 300.658556 71.5867069 314.219587 53.2108884 321 29.024055 321 17.4615688 321 7.78698052 319.569533 0 316.708556zM449.383764 145.586966L449.383764 188.980175 309.625195 260.884445 333.903496 282.972684 449.383764 282.972684 449.383764 320.413034 140.732663 320.413034 140.732663 282.972684 288.091397 282.972684C271.202059 272.737893 254.946316 262.555473 239.323678 252.425119L140.732663 190.546716 140.732663 147.936779C204.067679 187.936013 249.175608 216.603442 276.057804 233.939925L449.383764 145.586966z"/>
    </g>
    <rect width="568" height="568" x="6.5" y="6.5" stroke="#FFF" stroke-width="13"/>
  </g>
</svg>
